<svg width="13" height="13" viewBox="0 0 13 13" fill="none" xmlns="http://www.w3.org/2000/svg">
<g id="phone" clip-path="url(#clip0_11_578)">
<path id="Vector" d="M11.3308 8.96V10.46C11.3313 10.5993 11.3028 10.7371 11.247 10.8647C11.1912 10.9923 11.1094 11.1068 11.0068 11.2009C10.9042 11.2951 10.7831 11.3667 10.6512 11.4114C10.5192 11.456 10.3795 11.4725 10.2408 11.46C8.70219 11.2928 7.22428 10.7671 5.92578 9.925C4.71769 9.15733 3.69345 8.13309 2.92578 6.925C2.08077 5.6206 1.5549 4.1355 1.39078 2.59C1.37828 2.45174 1.39471 2.31238 1.43903 2.18081C1.48334 2.04925 1.55456 1.92835 1.64816 1.82581C1.74176 1.72328 1.85568 1.64136 1.98267 1.58526C2.10967 1.52917 2.24695 1.50013 2.38578 1.5H3.88578C4.12843 1.49761 4.36367 1.58354 4.54766 1.74177C4.73164 1.9 4.85182 2.11973 4.88578 2.36C4.94909 2.84004 5.0665 3.31137 5.23578 3.765C5.30305 3.94396 5.31761 4.13846 5.27773 4.32544C5.23785 4.51243 5.14521 4.68406 5.01078 4.82L4.37578 5.455C5.08755 6.70678 6.124 7.74323 7.37578 8.455L8.01078 7.82C8.14672 7.68557 8.31835 7.59293 8.50534 7.55305C8.69232 7.51317 8.88681 7.52773 9.06578 7.595C9.51941 7.76428 9.99074 7.88169 10.4708 7.945C10.7137 7.97927 10.9355 8.10161 11.094 8.28875C11.2526 8.47589 11.3369 8.71479 11.3308 8.96Z" stroke="#7C808A" stroke-linecap="round" stroke-linejoin="round"/>
</g>
<defs>
<clipPath id="clip0_11_578">
<rect width="12" height="12" fill="white" transform="translate(0.330811 0.5)"/>
</clipPath>
</defs>
</svg>
